<svg width="19" height="19" viewBox="0 0 19 19" fill="none" xmlns="http://www.w3.org/2000/svg">
<path d="M14.75 16.2499H4.25C4.05109 16.2499 3.86032 16.1709 3.71967 16.0303C3.57902 15.8896 3.5 15.6989 3.5 15.4999V8.74994H1.25L8.99525 1.70894C9.13333 1.5833 9.31331 1.51367 9.5 1.51367C9.68669 1.51367 9.86667 1.5833 10.0048 1.70894L17.75 8.74994H15.5V15.4999C15.5 15.6989 15.421 15.8896 15.2803 16.0303C15.1397 16.1709 14.9489 16.2499 14.75 16.2499ZM10.25 14.7499H14V7.36769L9.5 3.27719L5 7.36769V14.7499H8.75V10.2499H10.25V14.7499Z" fill="#3063C5"/>
</svg>
