<svg width="19" height="19" viewBox="0 0 19 19" fill="none" xmlns="http://www.w3.org/2000/svg">
<path d="M14.75 16.25H4.25C4.05109 16.25 3.86032 16.171 3.71967 16.0303C3.57902 15.8897 3.5 15.6989 3.5 15.5V8.75H1.25L8.99525 1.709C9.13333 1.58336 9.31331 1.51373 9.5 1.51373C9.68669 1.51373 9.86667 1.58336 10.0048 1.709L17.75 8.75H15.5V15.5C15.5 15.6989 15.421 15.8897 15.2803 16.0303C15.1397 16.171 14.9489 16.25 14.75 16.25ZM10.25 14.75H14V7.36775L9.5 3.27725L5 7.36775V14.75H8.75V10.25H10.25V14.75Z" fill="#858585"/>
</svg>
