<svg width="149" height="44" viewBox="0 0 149 44" fill="none" xmlns="http://www.w3.org/2000/svg">
<path d="M21.8672 5.18125C24.9497 2.27242 29.7659 2.27242 32.8484 5.18125L44.5034 16.1797C47.8493 19.3371 47.8493 24.6591 44.5034 27.8165L32.8484 38.8149C29.7659 41.7237 24.9497 41.7237 21.8672 38.8149L10.2121 27.8165C6.86624 24.6591 6.86624 19.3371 10.2121 16.1797L21.8672 5.18125Z" fill="#EAEAEA"/>
<path d="M18.4107 5.18125C21.4932 2.27242 26.3093 2.27242 29.3918 5.18125L41.0469 16.1797C44.3928 19.3371 44.3928 24.6591 41.0469 27.8165L29.3918 38.8149C26.3093 41.7237 21.4932 41.7237 18.4107 38.8149L6.75558 27.8165C3.40969 24.6591 3.4097 19.3371 6.75559 16.1797L18.4107 5.18125Z" fill="#3063C5"/>
<path d="M19.16 26.9961H17.88V23.6361H13.72V26.9961H12.44V19.1561H13.72V23.4761L14.68 22.5161H17.88V19.1561H19.16V26.9961ZM26.5938 20.2761H24.2738V26.9961H22.9938V20.2761H20.6738V19.1561H26.5938V20.2761ZM34.8319 23.6361C34.8319 23.9348 34.7199 24.1961 34.4959 24.4201C34.2719 24.6441 34.0105 24.7561 33.7119 24.7561H29.3919V26.9961H28.1119V21.3961L29.2319 20.2761H28.1119V19.1561H33.7119C34.0105 19.1561 34.2719 19.2681 34.4959 19.4921C34.7199 19.7161 34.8319 19.9774 34.8319 20.2761V23.6361ZM33.5519 23.6361V20.2761H29.3919V24.5961L30.3519 23.6361H33.5519Z" fill="white"/>
<path d="M54.53 28C54.43 28 54.345 27.97 54.275 27.91C54.205 27.84 54.17 27.75 54.17 27.64V17.875C54.17 17.765 54.205 17.675 54.275 17.605C54.345 17.535 54.43 17.5 54.53 17.5H55.895C56.005 17.5 56.09 17.535 56.15 17.605C56.22 17.675 56.255 17.765 56.255 17.875V21.745H60.68V17.875C60.68 17.765 60.715 17.675 60.785 17.605C60.855 17.535 60.94 17.5 61.04 17.5H62.39C62.5 17.5 62.59 17.535 62.66 17.605C62.73 17.675 62.765 17.765 62.765 17.875V27.64C62.765 27.74 62.73 27.825 62.66 27.895C62.59 27.965 62.5 28 62.39 28H61.04C60.94 28 60.855 27.965 60.785 27.895C60.715 27.825 60.68 27.74 60.68 27.64V23.62H56.255V27.64C56.255 27.74 56.22 27.825 56.15 27.895C56.09 27.965 56.005 28 55.895 28H54.53ZM67.1827 28.15C66.6627 28.15 66.1927 28.05 65.7727 27.85C65.3527 27.64 65.0177 27.365 64.7677 27.025C64.5277 26.675 64.4077 26.285 64.4077 25.855C64.4077 25.155 64.6877 24.6 65.2477 24.19C65.8177 23.77 66.5677 23.49 67.4977 23.35L69.5527 23.05V22.735C69.5527 22.315 69.4477 21.99 69.2377 21.76C69.0277 21.53 68.6677 21.415 68.1577 21.415C67.7977 21.415 67.5027 21.49 67.2727 21.64C67.0527 21.78 66.8877 21.97 66.7777 22.21C66.6977 22.34 66.5827 22.405 66.4327 22.405H65.2477C65.1377 22.405 65.0527 22.375 64.9927 22.315C64.9427 22.255 64.9177 22.175 64.9177 22.075C64.9277 21.915 64.9927 21.72 65.1127 21.49C65.2327 21.26 65.4227 21.04 65.6827 20.83C65.9427 20.61 66.2777 20.425 66.6877 20.275C67.0977 20.125 67.5927 20.05 68.1727 20.05C68.8027 20.05 69.3327 20.13 69.7627 20.29C70.2027 20.44 70.5527 20.645 70.8127 20.905C71.0727 21.165 71.2627 21.47 71.3827 21.82C71.5027 22.17 71.5627 22.54 71.5627 22.93V27.64C71.5627 27.74 71.5277 27.825 71.4577 27.895C71.3877 27.965 71.3027 28 71.2027 28H69.9877C69.8777 28 69.7877 27.965 69.7177 27.895C69.6577 27.825 69.6277 27.74 69.6277 27.64V27.055C69.4977 27.245 69.3227 27.425 69.1027 27.595C68.8827 27.755 68.6127 27.89 68.2927 28C67.9827 28.1 67.6127 28.15 67.1827 28.15ZM67.6927 26.725C68.0427 26.725 68.3577 26.65 68.6377 26.5C68.9277 26.35 69.1527 26.12 69.3127 25.81C69.4827 25.49 69.5677 25.09 69.5677 24.61V24.295L68.0677 24.535C67.4777 24.625 67.0377 24.77 66.7477 24.97C66.4577 25.17 66.3127 25.415 66.3127 25.705C66.3127 25.925 66.3777 26.115 66.5077 26.275C66.6477 26.425 66.8227 26.54 67.0327 26.62C67.2427 26.69 67.4627 26.725 67.6927 26.725ZM73.8621 28C73.7621 28 73.6771 27.965 73.6071 27.895C73.5371 27.825 73.5021 27.74 73.5021 27.64V17.71C73.5021 17.61 73.5371 17.525 73.6071 17.455C73.6771 17.385 73.7621 17.35 73.8621 17.35H75.1071C75.2071 17.35 75.2921 17.385 75.3621 17.455C75.4321 17.525 75.4671 17.61 75.4671 17.71V27.64C75.4671 27.74 75.4321 27.825 75.3621 27.895C75.2921 27.965 75.2071 28 75.1071 28H73.8621ZM78.6568 28C78.5568 28 78.4718 27.965 78.4018 27.895C78.3318 27.825 78.2968 27.74 78.2968 27.64V21.79H77.0818C76.9818 21.79 76.8968 21.755 76.8268 21.685C76.7568 21.615 76.7218 21.53 76.7218 21.43V20.56C76.7218 20.46 76.7568 20.375 76.8268 20.305C76.8968 20.235 76.9818 20.2 77.0818 20.2H78.2968V19.585C78.2968 18.985 78.4068 18.49 78.6268 18.1C78.8468 17.7 79.1718 17.4 79.6018 17.2C80.0318 17 80.5768 16.9 81.2368 16.9H82.2568C82.3668 16.9 82.4518 16.935 82.5118 17.005C82.5818 17.075 82.6168 17.16 82.6168 17.26V18.13C82.6168 18.23 82.5818 18.315 82.5118 18.385C82.4518 18.455 82.3668 18.49 82.2568 18.49H81.2968C80.8968 18.49 80.6218 18.59 80.4718 18.79C80.3218 18.99 80.2468 19.28 80.2468 19.66V20.2H82.1068C82.2168 20.2 82.3018 20.235 82.3618 20.305C82.4318 20.375 82.4668 20.46 82.4668 20.56V21.43C82.4668 21.53 82.4318 21.615 82.3618 21.685C82.3018 21.755 82.2168 21.79 82.1068 21.79H80.2468V27.64C80.2468 27.74 80.2118 27.825 80.1418 27.895C80.0718 27.965 79.9868 28 79.8868 28H78.6568ZM87.1927 28C86.5927 28 86.0877 27.895 85.6777 27.685C85.2677 27.475 84.9627 27.165 84.7627 26.755C84.5627 26.335 84.4627 25.815 84.4627 25.195V21.79H83.2777C83.1777 21.79 83.0927 21.755 83.0227 21.685C82.9527 21.615 82.9177 21.53 82.9177 21.43V20.56C82.9177 20.46 82.9527 20.375 83.0227 20.305C83.0927 20.235 83.1777 20.2 83.2777 20.2H84.4627V17.71C84.4627 17.61 84.4927 17.525 84.5527 17.455C84.6227 17.385 84.7127 17.35 84.8227 17.35H86.0377C86.1377 17.35 86.2227 17.385 86.2927 17.455C86.3627 17.525 86.3977 17.61 86.3977 17.71V20.2H88.2727C88.3727 20.2 88.4577 20.235 88.5277 20.305C88.5977 20.375 88.6327 20.46 88.6327 20.56V21.43C88.6327 21.53 88.5977 21.615 88.5277 21.685C88.4577 21.755 88.3727 21.79 88.2727 21.79H86.3977V25.045C86.3977 25.455 86.4677 25.775 86.6077 26.005C86.7577 26.235 87.0127 26.35 87.3727 26.35H88.4077C88.5077 26.35 88.5927 26.385 88.6627 26.455C88.7327 26.525 88.7677 26.61 88.7677 26.71V27.64C88.7677 27.74 88.7327 27.825 88.6627 27.895C88.5927 27.965 88.5077 28 88.4077 28H87.1927ZM90.4584 28C90.3584 28 90.2734 27.965 90.2034 27.895C90.1334 27.825 90.0984 27.74 90.0984 27.64V20.56C90.0984 20.46 90.1334 20.375 90.2034 20.305C90.2734 20.235 90.3584 20.2 90.4584 20.2H91.7034C91.8134 20.2 91.8984 20.235 91.9584 20.305C92.0284 20.375 92.0634 20.46 92.0634 20.56V27.64C92.0634 27.74 92.0284 27.825 91.9584 27.895C91.8984 27.965 91.8134 28 91.7034 28H90.4584ZM90.3984 18.91C90.2884 18.91 90.1984 18.88 90.1284 18.82C90.0684 18.75 90.0384 18.66 90.0384 18.55V17.47C90.0384 17.37 90.0684 17.285 90.1284 17.215C90.1984 17.145 90.2884 17.11 90.3984 17.11H91.7634C91.8734 17.11 91.9634 17.145 92.0334 17.215C92.1034 17.285 92.1384 17.37 92.1384 17.47V18.55C92.1384 18.66 92.1034 18.75 92.0334 18.82C91.9634 18.88 91.8734 18.91 91.7634 18.91H90.3984ZM94.7211 28C94.6211 28 94.5361 27.965 94.4661 27.895C94.3961 27.825 94.3611 27.74 94.3611 27.64V20.56C94.3611 20.46 94.3961 20.375 94.4661 20.305C94.5361 20.235 94.6211 20.2 94.7211 20.2H95.8911C95.9911 20.2 96.0761 20.235 96.1461 20.305C96.2161 20.375 96.2511 20.46 96.2511 20.56V21.07C96.4611 20.79 96.7411 20.555 97.0911 20.365C97.4511 20.165 97.8761 20.06 98.3661 20.05C99.5061 20.03 100.301 20.475 100.751 21.385C100.981 20.985 101.311 20.665 101.741 20.425C102.181 20.175 102.666 20.05 103.196 20.05C103.716 20.05 104.186 20.17 104.606 20.41C105.036 20.65 105.371 21.015 105.611 21.505C105.861 21.985 105.986 22.595 105.986 23.335V27.64C105.986 27.74 105.951 27.825 105.881 27.895C105.811 27.965 105.726 28 105.626 28H104.396C104.296 28 104.211 27.965 104.141 27.895C104.071 27.825 104.036 27.74 104.036 27.64V23.455C104.036 23.005 103.971 22.65 103.841 22.39C103.711 22.12 103.536 21.93 103.316 21.82C103.096 21.71 102.851 21.655 102.581 21.655C102.361 21.655 102.141 21.71 101.921 21.82C101.701 21.93 101.521 22.12 101.381 22.39C101.241 22.65 101.171 23.005 101.171 23.455V27.64C101.171 27.74 101.136 27.825 101.066 27.895C100.996 27.965 100.911 28 100.811 28H99.5811C99.4711 28 99.3811 27.965 99.3111 27.895C99.2511 27.825 99.2211 27.74 99.2211 27.64V23.455C99.2211 23.005 99.1511 22.65 99.0111 22.39C98.8711 22.12 98.6911 21.93 98.4711 21.82C98.2511 21.71 98.0161 21.655 97.7661 21.655C97.5361 21.655 97.3111 21.715 97.0911 21.835C96.8711 21.945 96.6911 22.13 96.5511 22.39C96.4111 22.65 96.3411 23.005 96.3411 23.455V27.64C96.3411 27.74 96.3061 27.825 96.2361 27.895C96.1661 27.965 96.0811 28 95.9811 28H94.7211ZM111.256 28.15C110.146 28.15 109.266 27.83 108.616 27.19C107.966 26.55 107.616 25.64 107.566 24.46C107.556 24.36 107.551 24.235 107.551 24.085C107.551 23.925 107.556 23.8 107.566 23.71C107.606 22.96 107.776 22.31 108.076 21.76C108.386 21.21 108.811 20.79 109.351 20.5C109.891 20.2 110.526 20.05 111.256 20.05C112.066 20.05 112.746 20.22 113.296 20.56C113.846 20.89 114.261 21.355 114.541 21.955C114.821 22.545 114.961 23.23 114.961 24.01V24.325C114.961 24.425 114.926 24.51 114.856 24.58C114.786 24.65 114.696 24.685 114.586 24.685H109.606C109.606 24.685 109.606 24.7 109.606 24.73C109.606 24.76 109.606 24.785 109.606 24.805C109.616 25.155 109.681 25.48 109.801 25.78C109.931 26.07 110.116 26.305 110.356 26.485C110.606 26.665 110.901 26.755 111.241 26.755C111.521 26.755 111.756 26.715 111.946 26.635C112.136 26.545 112.291 26.445 112.411 26.335C112.531 26.225 112.616 26.135 112.666 26.065C112.756 25.945 112.826 25.875 112.876 25.855C112.936 25.825 113.021 25.81 113.131 25.81H114.421C114.521 25.81 114.601 25.84 114.661 25.9C114.731 25.96 114.761 26.035 114.751 26.125C114.741 26.285 114.656 26.48 114.496 26.71C114.346 26.94 114.126 27.165 113.836 27.385C113.546 27.605 113.181 27.79 112.741 27.94C112.311 28.08 111.816 28.15 111.256 28.15ZM109.606 23.425H112.921V23.38C112.921 22.99 112.856 22.65 112.726 22.36C112.596 22.07 112.406 21.84 112.156 21.67C111.906 21.5 111.606 21.415 111.256 21.415C110.906 21.415 110.606 21.5 110.356 21.67C110.106 21.84 109.916 22.07 109.786 22.36C109.666 22.65 109.606 22.99 109.606 23.38V23.425ZM117.093 28C116.993 28 116.908 27.965 116.838 27.895C116.768 27.825 116.733 27.74 116.733 27.64V17.875C116.733 17.765 116.768 17.675 116.838 17.605C116.908 17.535 116.993 17.5 117.093 17.5H121.113C121.893 17.5 122.573 17.625 123.153 17.875C123.733 18.115 124.183 18.485 124.503 18.985C124.823 19.475 124.983 20.09 124.983 20.83C124.983 21.58 124.823 22.2 124.503 22.69C124.183 23.17 123.733 23.53 123.153 23.77C122.573 24.01 121.893 24.13 121.113 24.13H118.878V27.64C118.878 27.74 118.843 27.825 118.773 27.895C118.713 27.965 118.628 28 118.518 28H117.093ZM118.848 22.465H121.038C121.618 22.465 122.063 22.33 122.373 22.06C122.683 21.78 122.838 21.37 122.838 20.83C122.838 20.33 122.693 19.93 122.403 19.63C122.113 19.32 121.658 19.165 121.038 19.165H118.848V22.465ZM126.904 28C126.804 28 126.719 27.965 126.649 27.895C126.579 27.825 126.544 27.74 126.544 27.64V20.56C126.544 20.46 126.579 20.375 126.649 20.305C126.719 20.235 126.804 20.2 126.904 20.2H128.149C128.259 20.2 128.344 20.235 128.404 20.305C128.474 20.375 128.509 20.46 128.509 20.56V27.64C128.509 27.74 128.474 27.825 128.404 27.895C128.344 27.965 128.259 28 128.149 28H126.904ZM126.844 18.91C126.734 18.91 126.644 18.88 126.574 18.82C126.514 18.75 126.484 18.66 126.484 18.55V17.47C126.484 17.37 126.514 17.285 126.574 17.215C126.644 17.145 126.734 17.11 126.844 17.11H128.209C128.319 17.11 128.409 17.145 128.479 17.215C128.549 17.285 128.584 17.37 128.584 17.47V18.55C128.584 18.66 128.549 18.75 128.479 18.82C128.409 18.88 128.319 18.91 128.209 18.91H126.844ZM133.918 28.15C133.198 28.15 132.563 28.015 132.013 27.745C131.473 27.475 131.048 27.085 130.738 26.575C130.438 26.055 130.273 25.43 130.243 24.7C130.233 24.55 130.228 24.355 130.228 24.115C130.228 23.865 130.233 23.66 130.243 23.5C130.273 22.77 130.438 22.15 130.738 21.64C131.048 21.12 131.473 20.725 132.013 20.455C132.563 20.185 133.198 20.05 133.918 20.05C134.558 20.05 135.103 20.14 135.553 20.32C136.003 20.5 136.373 20.725 136.663 20.995C136.953 21.265 137.168 21.55 137.308 21.85C137.458 22.14 137.538 22.405 137.548 22.645C137.558 22.755 137.523 22.845 137.443 22.915C137.373 22.975 137.288 23.005 137.188 23.005H135.868C135.768 23.005 135.688 22.98 135.628 22.93C135.578 22.88 135.528 22.805 135.478 22.705C135.328 22.305 135.128 22.025 134.878 21.865C134.638 21.695 134.328 21.61 133.948 21.61C133.448 21.61 133.048 21.77 132.748 22.09C132.458 22.4 132.303 22.895 132.283 23.575C132.263 23.955 132.263 24.305 132.283 24.625C132.303 25.315 132.458 25.815 132.748 26.125C133.048 26.435 133.448 26.59 133.948 26.59C134.338 26.59 134.653 26.51 134.893 26.35C135.133 26.18 135.328 25.895 135.478 25.495C135.528 25.395 135.578 25.32 135.628 25.27C135.688 25.22 135.768 25.195 135.868 25.195H137.188C137.288 25.195 137.373 25.23 137.443 25.3C137.523 25.36 137.558 25.445 137.548 25.555C137.538 25.735 137.488 25.94 137.398 26.17C137.318 26.39 137.183 26.62 136.993 26.86C136.813 27.09 136.583 27.305 136.303 27.505C136.023 27.695 135.683 27.85 135.283 27.97C134.893 28.09 134.438 28.15 133.918 28.15ZM139.487 28C139.387 28 139.302 27.965 139.232 27.895C139.162 27.825 139.127 27.74 139.127 27.64V17.71C139.127 17.61 139.162 17.525 139.232 17.455C139.302 17.385 139.387 17.35 139.487 17.35H140.702C140.812 17.35 140.897 17.385 140.957 17.455C141.027 17.525 141.062 17.61 141.062 17.71V22.84L143.582 20.455C143.672 20.375 143.752 20.315 143.822 20.275C143.892 20.225 143.997 20.2 144.137 20.2H145.532C145.632 20.2 145.712 20.23 145.772 20.29C145.832 20.35 145.862 20.43 145.862 20.53C145.862 20.57 145.852 20.615 145.832 20.665C145.812 20.715 145.772 20.76 145.712 20.8L142.622 23.695L146.087 27.415C146.187 27.515 146.237 27.6 146.237 27.67C146.237 27.77 146.202 27.85 146.132 27.91C146.072 27.97 145.997 28 145.907 28H144.482C144.332 28 144.222 27.98 144.152 27.94C144.092 27.89 144.017 27.825 143.927 27.745L141.062 24.73V27.64C141.062 27.74 141.027 27.825 140.957 27.895C140.897 27.965 140.812 28 140.702 28H139.487Z" fill="white"/>
</svg>
