<svg width="19" height="19" viewBox="0 0 19 19" fill="none" xmlns="http://www.w3.org/2000/svg">
<path d="M15.1667 17H3.16675C2.96784 17 2.77707 16.921 2.63642 16.7803C2.49577 16.6397 2.41675 16.4489 2.41675 16.25V2.75C2.41675 2.55109 2.49577 2.36032 2.63642 2.21967C2.77707 2.07902 2.96784 2 3.16675 2H15.1667C15.3657 2 15.5564 2.07902 15.6971 2.21967C15.8377 2.36032 15.9167 2.55109 15.9167 2.75V16.25C15.9167 16.4489 15.8377 16.6397 15.6971 16.7803C15.5564 16.921 15.3657 17 15.1667 17ZM14.4167 15.5V3.5H3.91675V15.5H14.4167ZM5.41675 5H8.41675V8H5.41675V5ZM5.41675 9.5H12.9167V11H5.41675V9.5ZM5.41675 12.5H12.9167V14H5.41675V12.5ZM9.91675 5.75H12.9167V7.25H9.91675V5.75Z" fill="#3063C5"/>
</svg>
