<svg width="19" height="19" viewBox="0 0 19 19" fill="none" xmlns="http://www.w3.org/2000/svg">
<path d="M15.1665 17H3.1665C2.96759 17 2.77683 16.921 2.63617 16.7803C2.49552 16.6397 2.4165 16.4489 2.4165 16.25V2.75C2.4165 2.55109 2.49552 2.36032 2.63617 2.21967C2.77683 2.07902 2.96759 2 3.1665 2H15.1665C15.3654 2 15.5562 2.07902 15.6968 2.21967C15.8375 2.36032 15.9165 2.55109 15.9165 2.75V16.25C15.9165 16.4489 15.8375 16.6397 15.6968 16.7803C15.5562 16.921 15.3654 17 15.1665 17ZM14.4165 15.5V3.5H3.9165V15.5H14.4165ZM5.4165 5H8.4165V8H5.4165V5ZM5.4165 9.5H12.9165V11H5.4165V9.5ZM5.4165 12.5H12.9165V14H5.4165V12.5ZM9.9165 5.75H12.9165V7.25H9.9165V5.75Z" fill="#858585"/>
</svg>
