<svg width="19" height="18" viewBox="0 0 19 18" fill="none" xmlns="http://www.w3.org/2000/svg">
<path d="M9.50001 0.750007C11.2902 0.750007 13.0071 1.46117 14.273 2.72704C15.5388 3.99291 16.25 5.7098 16.25 7.50001V10.5C16.2503 11.5863 15.9885 12.6565 15.4868 13.62C14.985 14.5834 14.2582 15.4115 13.368 16.0339C12.4778 16.6564 11.4505 17.0548 10.3734 17.1954C9.29626 17.3359 8.20114 17.2144 7.18101 16.8413C7.27701 16.7085 7.36926 16.5735 7.45776 16.4348L7.58526 16.2248C8.31253 15.0114 8.71304 13.6302 8.74776 12.216L8.75001 12V6.75001H10.25V12C10.2516 13.2874 9.99745 14.5624 9.50226 15.7508C10.0815 15.7505 10.6567 15.6547 11.2048 15.4673C11.5363 14.4465 11.7245 13.3613 11.7478 12.2348L11.75 12V9.74926H13.25V12C13.25 12.816 13.1735 13.6148 13.0265 14.3888C13.5474 13.9177 13.9682 13.3467 14.2638 12.7097C14.5593 12.0726 14.7237 11.3826 14.747 10.6808L14.75 10.5V7.50001C14.75 6.52566 14.4789 5.57053 13.9669 4.74151C13.455 3.91249 12.7224 3.2423 11.8512 2.80594C10.9801 2.36957 10.0046 2.18425 9.03413 2.27071C8.06362 2.35717 7.13632 2.71201 6.35601 3.29551L5.28726 2.22601C6.48236 1.26847 7.96862 0.747736 9.50001 0.750007ZM5.75001 7.50001C5.75001 6.50545 6.1451 5.55162 6.84836 4.84836C7.55162 4.1451 8.50545 3.75001 9.50001 3.75001C10.4946 3.75001 11.4484 4.1451 12.1517 4.84836C12.8549 5.55162 13.25 6.50545 13.25 7.50001V8.25001H11.75V7.50001C11.7506 6.91433 11.5227 6.35151 11.1149 5.93114C10.7071 5.51078 10.1515 5.266 9.56604 5.24881C8.98061 5.23162 8.41155 5.44339 7.97978 5.8391C7.54801 6.23482 7.28755 6.7833 7.25376 7.36801L7.25001 7.50001V12C7.25001 13.1753 6.95001 14.28 6.42201 15.2423L6.40401 15.2723C6.23151 15.5828 6.03576 15.8783 5.81751 16.1565C5.4877 15.9414 5.17727 15.698 4.88976 15.429L4.65801 15.204C3.43215 13.9453 2.74734 12.257 2.75001 10.5V7.50001C2.75001 5.90626 3.30201 4.44151 4.22601 3.28726L5.29551 4.35601C4.65226 5.21343 4.2883 6.24795 4.25301 7.31926L4.25001 7.50001V10.5C4.25001 11.7563 4.69101 12.909 5.42751 13.8128C5.62116 13.2895 5.72905 12.7384 5.74701 12.1808L5.75001 12V7.50001Z" fill="#858585"/>
</svg>
