<svg width="23" height="16" viewBox="0 0 23 16" fill="none" xmlns="http://www.w3.org/2000/svg">
<rect x="0.833496" y="0.5" width="10" height="15" rx="2" fill="#858585"/>
<path d="M6.5495 10.5C6.49083 10.5 6.44283 10.4813 6.4055 10.444C6.3735 10.4067 6.3575 10.3613 6.3575 10.308V6.164L5.1415 7.1C5.0935 7.132 5.0455 7.14533 4.9975 7.14C4.9495 7.12933 4.90683 7.1 4.8695 7.052L4.5335 6.62C4.5015 6.572 4.48816 6.52133 4.4935 6.468C4.50416 6.41467 4.5335 6.372 4.5815 6.34L6.3735 4.956C6.4055 4.92933 6.4375 4.91333 6.4695 4.908C6.5015 4.90267 6.53616 4.9 6.5735 4.9H7.2775C7.33083 4.9 7.37616 4.91867 7.4135 4.956C7.45083 4.99333 7.4695 5.03867 7.4695 5.092V10.308C7.4695 10.3613 7.45083 10.4067 7.4135 10.444C7.37616 10.4813 7.33083 10.5 7.2775 10.5H6.5495Z" fill="#060B14"/>
<rect x="12.8335" y="0.5" width="10" height="15" rx="2" fill="#858585"/>
<path d="M15.8855 10.5C15.8322 10.5 15.7868 10.4813 15.7495 10.444C15.7122 10.4067 15.6935 10.3613 15.6935 10.308V9.9C15.6935 9.852 15.7042 9.796 15.7255 9.732C15.7522 9.66267 15.8082 9.59333 15.8935 9.524L17.1575 8.268C17.5095 7.99067 17.7922 7.756 18.0055 7.564C18.2242 7.36667 18.3815 7.188 18.4775 7.028C18.5788 6.86267 18.6295 6.7 18.6295 6.54C18.6295 6.3 18.5628 6.10533 18.4295 5.956C18.3015 5.80667 18.0962 5.732 17.8135 5.732C17.6268 5.732 17.4695 5.772 17.3415 5.852C17.2135 5.92667 17.1122 6.028 17.0375 6.156C16.9682 6.284 16.9202 6.42533 16.8935 6.58C16.8828 6.64933 16.8535 6.69733 16.8055 6.724C16.7575 6.75067 16.7095 6.764 16.6615 6.764H15.9495C15.9015 6.764 15.8615 6.748 15.8295 6.716C15.7975 6.684 15.7815 6.64667 15.7815 6.604C15.7868 6.37467 15.8348 6.15333 15.9255 5.94C16.0162 5.72133 16.1468 5.52933 16.3175 5.364C16.4935 5.19333 16.7068 5.05733 16.9575 4.956C17.2082 4.85467 17.4908 4.804 17.8055 4.804C18.2482 4.804 18.6135 4.87867 18.9015 5.028C19.1948 5.17733 19.4135 5.38 19.5575 5.636C19.7068 5.892 19.7815 6.18 19.7815 6.5C19.7815 6.75067 19.7335 6.98267 19.6375 7.196C19.5415 7.404 19.4028 7.60667 19.2215 7.804C19.0402 7.996 18.8215 8.19333 18.5655 8.396L17.4295 9.548H19.7095C19.7682 9.548 19.8135 9.56667 19.8455 9.604C19.8828 9.636 19.9015 9.68133 19.9015 9.74V10.308C19.9015 10.3613 19.8828 10.4067 19.8455 10.444C19.8135 10.4813 19.7682 10.5 19.7095 10.5H15.8855Z" fill="#060B14"/>
</svg>
