<svg width="23" height="16" viewBox="0 0 23 16" fill="none" xmlns="http://www.w3.org/2000/svg">
<rect x="0.833252" y="0.5" width="10" height="15" rx="2" fill="#3063C5"/>
<path d="M6.54925 10.5C6.49059 10.5 6.44259 10.4813 6.40525 10.444C6.37325 10.4067 6.35725 10.3613 6.35725 10.308V6.164L5.14125 7.1C5.09325 7.132 5.04525 7.14533 4.99725 7.14C4.94925 7.12933 4.90659 7.1 4.86925 7.052L4.53325 6.62C4.50125 6.572 4.48792 6.52133 4.49325 6.468C4.50392 6.41467 4.53325 6.372 4.58125 6.34L6.37325 4.956C6.40525 4.92933 6.43725 4.91333 6.46925 4.908C6.50125 4.90267 6.53592 4.9 6.57325 4.9H7.27725C7.33059 4.9 7.37592 4.91867 7.41325 4.956C7.45059 4.99333 7.46925 5.03867 7.46925 5.092V10.308C7.46925 10.3613 7.45059 10.4067 7.41325 10.444C7.37592 10.4813 7.33059 10.5 7.27725 10.5H6.54925Z" fill="white"/>
<rect x="12.8333" y="0.5" width="10" height="15" rx="2" fill="#3063C5"/>
<path d="M15.8853 10.5C15.8319 10.5 15.7866 10.4813 15.7493 10.444C15.7119 10.4067 15.6933 10.3613 15.6933 10.308V9.9C15.6933 9.852 15.7039 9.796 15.7253 9.732C15.7519 9.66267 15.8079 9.59333 15.8933 9.524L17.1573 8.268C17.5093 7.99067 17.7919 7.756 18.0053 7.564C18.2239 7.36667 18.3813 7.188 18.4773 7.028C18.5786 6.86267 18.6293 6.7 18.6293 6.54C18.6293 6.3 18.5626 6.10533 18.4293 5.956C18.3013 5.80667 18.0959 5.732 17.8133 5.732C17.6266 5.732 17.4693 5.772 17.3413 5.852C17.2133 5.92667 17.1119 6.028 17.0373 6.156C16.9679 6.284 16.9199 6.42533 16.8933 6.58C16.8826 6.64933 16.8533 6.69733 16.8053 6.724C16.7573 6.75067 16.7093 6.764 16.6613 6.764H15.9493C15.9013 6.764 15.8613 6.748 15.8293 6.716C15.7973 6.684 15.7813 6.64667 15.7813 6.604C15.7866 6.37467 15.8346 6.15333 15.9253 5.94C16.0159 5.72133 16.1466 5.52933 16.3173 5.364C16.4933 5.19333 16.7066 5.05733 16.9573 4.956C17.2079 4.85467 17.4906 4.804 17.8053 4.804C18.2479 4.804 18.6133 4.87867 18.9013 5.028C19.1946 5.17733 19.4133 5.38 19.5573 5.636C19.7066 5.892 19.7813 6.18 19.7813 6.5C19.7813 6.75067 19.7333 6.98267 19.6373 7.196C19.5413 7.404 19.4026 7.60667 19.2213 7.804C19.0399 7.996 18.8213 8.19333 18.5653 8.396L17.4293 9.548H19.7093C19.7679 9.548 19.8133 9.56667 19.8453 9.604C19.8826 9.636 19.9013 9.68133 19.9013 9.74V10.308C19.9013 10.3613 19.8826 10.4067 19.8453 10.444C19.8133 10.4813 19.7679 10.5 19.7093 10.5H15.8853Z" fill="white"/>
</svg>
