<svg width="19" height="19" viewBox="0 0 19 19" fill="none" xmlns="http://www.w3.org/2000/svg">
<path d="M14.2745 13.1551L17.6652 16.5451L16.545 17.6653L13.155 14.2746C11.8937 15.2857 10.3248 15.8356 8.70825 15.8333C4.77525 15.8333 1.58325 12.6413 1.58325 8.70834C1.58325 4.77534 4.77525 1.58334 8.70825 1.58334C12.6413 1.58334 15.8333 4.77534 15.8333 8.70834C15.8356 10.3249 15.2856 11.8938 14.2745 13.1551ZM12.6864 12.5677C13.6911 11.5345 14.2522 10.1495 14.2499 8.70834C14.2499 5.64618 11.7696 3.16668 8.70825 3.16668C5.64609 3.16668 3.16659 5.64618 3.16659 8.70834C3.16659 11.7697 5.64609 14.25 8.70825 14.25C10.1494 14.2523 11.5344 13.6912 12.5676 12.6865L12.6864 12.5677Z" fill="white"/>
</svg>
